<svg xmlns="http://www.w3.org/2000/svg" xmlns:xlink="http://www.w3.org/1999/xlink" width="98.405" height="98.406" viewBox="0 0 98.405 98.406">
  <defs>
    <linearGradient id="linear-gradient" x1="0.154" y1="0.154" x2="0.824" y2="0.824" gradientUnits="objectBoundingBox">
      <stop offset="0" stop-color="#00ddec"/>
      <stop offset="1" stop-color="#324a9b"/>
    </linearGradient>
  </defs>
  <g id="logo" transform="translate(4875 -15292.614)">
    <g id="Group_15" data-name="Group 15" transform="translate(-12599.583 15139.804)">
      <path id="Path_6041" data-name="Path 6041" d="M7822.988,202.014a49.2,49.2,0,1,1-49.2-49.2A49.2,49.2,0,0,1,7822.988,202.014Z" fill="url(#linear-gradient)"/>
      <path id="Path_6047" data-name="Path 6047" d="M7742.107,186.214a2.694,2.694,0,1,0-1.918-.788A2.6,2.6,0,0,0,7742.107,186.214Z" fill="#fff" stroke="#fff" stroke-miterlimit="10" stroke-width="0.597"/>
      <path id="Path_6048" data-name="Path 6048" d="M7750.009,208.367a2.323,2.323,0,0,0,2.334-2.332v-6.262h4.58a9.237,9.237,0,1,0-9.244-9.245v15.507a2.318,2.318,0,0,0,2.33,2.332Zm2.334-17.839a4.572,4.572,0,0,1,9.144,0,4.408,4.408,0,0,1-1.342,3.24,4.363,4.363,0,0,1-3.222,1.343h-4.58Z" fill="#fff"/>
      <path id="Path_6049" data-name="Path 6049" d="M7777,204.324a9.251,9.251,0,0,0,4.937-1.392,2.166,2.166,0,0,0,2.137,1.392,2.351,2.351,0,0,0,2.332-2.332v-7.058a9.4,9.4,0,1,0-9.406,9.39Zm-3.334-12.742A4.512,4.512,0,0,1,7777,190.19a4.736,4.736,0,1,1,0,9.471,4.531,4.531,0,0,1-3.334-1.376,4.728,4.728,0,0,1,0-6.7Z" fill="#fff"/>
      <path id="Path_6050" data-name="Path 6050" d="M7805.462,185.53a2.317,2.317,0,0,0-2.332,2.327v7.061a4.562,4.562,0,0,1-1.4,3.35,4.7,4.7,0,0,1-6.683,0,4.559,4.559,0,0,1-1.394-3.35v-7.061a2.332,2.332,0,1,0-4.663,0v7.061a9.4,9.4,0,0,0,9.409,9.406,9.2,9.2,0,0,0,4.613-1.217,29.314,29.314,0,0,1-58.548-2.158h-.028V193.14a2.345,2.345,0,0,0-2.334-2.333,2.358,2.358,0,0,0-2.332,2.333v8.852a2.373,2.373,0,0,0,.16.86,33.9,33.9,0,0,0,67.65.683h.017l.189-2.586V187.857a2.314,2.314,0,0,0-2.329-2.327Z" fill="#fff"/>
      <path id="Path_6051" data-name="Path 6051" d="M7786.4,204.113a2.256,2.256,0,0,1-2.256,2.258h0a2.256,2.256,0,0,1-2.257-2.258v-4.265a2.254,2.254,0,0,1,2.257-2.254h0a2.254,2.254,0,0,1,2.256,2.254Z" fill="#fff"/>
    </g>
  </g>
</svg>
